<?xml version="1.0" encoding="UTF-8" ?>
<!DOCTYPE svg PUBLIC "-//W3C//DTD SVG 1.1//EN" "http://www.w3.org/Graphics/SVG/1.1/DTD/svg11.dtd">
<svg width="878pt" height="962pt" viewBox="0 0 878 962" version="1.1" xmlns="http://www.w3.org/2000/svg">
<path fill="#020304" stroke="#020304" stroke-width="0.09375" opacity="1.00" d=" M 420.6 1.1 C 433.2 0.9 445.8 0.9 458.4 1.1 C 459.9 2.2 461.7 2.0 463.4 2.2 C 465.6 3.6 468.4 2.4 470.6 3.8 C 471.5 3.9 472.5 4.1 473.4 4.2 C 475.3 5.2 477.6 4.9 479.6 5.6 C 480.6 6.0 481.6 6.4 482.6 6.8 C 483.0 6.9 484.0 7.1 484.4 7.2 C 485.4 7.6 486.4 8.0 487.5 8.3 C 488.8 8.8 490.2 9.2 491.5 9.7 C 492.5 10.0 493.6 10.4 494.6 10.8 C 495.0 10.9 496.0 11.1 496.5 11.1 C 498.2 12.1 499.8 12.9 501.5 13.9 C 502.0 13.9 503.0 14.1 503.5 14.1 C 504.8 14.9 506.2 15.6 507.5 16.3 C 509.8 17.4 512.1 18.6 514.4 19.7 C 514.9 20.0 516.0 20.5 516.5 20.7 C 519.6 22.2 522.3 24.4 525.5 25.7 C 527.6 26.7 529.6 28.0 531.6 29.3 C 533.5 30.4 535.4 31.6 537.4 32.7 C 539.6 33.7 541.6 35.0 543.6 36.3 C 545.9 37.6 548.1 39.1 550.6 40.3 C 552.6 41.4 554.4 42.6 556.4 43.7 C 558.9 44.8 561.1 46.4 563.4 47.8 C 565.6 48.7 567.6 50.0 569.6 51.3 C 571.5 52.4 573.4 53.6 575.4 54.7 C 577.9 55.8 580.1 57.4 582.4 58.8 C 584.6 59.7 586.6 61.0 588.6 62.3 C 590.9 63.6 593.1 65.1 595.6 66.3 C 597.5 67.4 599.4 68.6 601.4 69.7 C 604.3 71.0 606.7 73.0 609.6 74.3 C 611.3 75.2 612.9 76.3 614.6 77.3 C 616.9 78.6 619.1 80.1 621.6 81.3 C 623.5 82.4 625.4 83.6 627.4 84.7 C 629.6 85.7 631.6 87.0 633.6 88.3 C 635.5 89.4 637.4 90.6 639.4 91.7 C 641.9 92.8 644.1 94.4 646.4 95.8 C 648.6 96.7 650.6 98.0 652.6 99.3 C 654.5 100.4 656.4 101.6 658.4 102.7 C 660.9 103.8 663.1 105.4 665.4 106.8 C 667.6 107.7 669.6 109.0 671.6 110.3 C 673.5 111.4 675.4 112.6 677.4 113.7 C 679.9 114.8 682.1 116.4 684.4 117.8 C 687.3 119.0 689.7 121.0 692.6 122.3 C 694.3 123.2 695.9 124.3 697.6 125.3 C 699.5 126.4 701.4 127.6 703.4 128.7 C 706.3 130.0 708.7 132.0 711.6 133.3 C 713.5 134.4 715.4 135.6 717.4 136.7 C 719.1 137.7 720.7 138.8 722.4 139.7 C 724.9 140.8 727.1 142.4 729.4 143.8 C 731.6 144.7 733.6 146.0 735.6 147.3 C 737.9 148.6 740.1 150.1 742.6 151.3 C 744.5 152.4 746.4 153.6 748.4 154.7 C 750.4 156.0 752.4 157.3 754.6 158.2 C 756.9 159.6 759.1 161.2 761.6 162.3 C 763.5 163.4 765.4 164.6 767.4 165.7 C 769.6 166.7 771.6 168.0 773.6 169.3 C 775.3 170.2 776.9 171.3 778.6 172.3 C 780.3 173.2 781.9 174.3 783.6 175.3 C 791.9 180.1 799.4 186.1 807.1 191.8 C 809.6 193.7 811.4 196.3 813.9 198.2 C 818.3 201.2 821.9 205.5 825.7 209.3 C 828.5 213.8 833.0 216.7 835.9 221.1 C 841.3 227.1 846.0 233.7 850.8 240.1 C 852.7 242.4 854.4 244.8 855.7 247.4 C 856.5 248.8 857.4 250.2 858.3 251.6 C 859.6 253.9 861.1 256.1 862.3 258.5 C 863.3 260.6 864.3 262.5 865.3 264.6 C 866.1 266.2 866.9 267.9 867.9 269.5 C 867.9 270.0 868.0 271.0 868.1 271.5 C 868.7 272.5 869.3 273.5 869.9 274.5 C 870.0 275.0 870.0 276.0 870.1 276.5 C 870.7 277.5 871.3 278.5 871.9 279.5 C 872.0 280.0 872.1 280.9 872.2 281.4 C 872.8 283.1 873.2 284.9 873.8 286.6 C 873.9 287.0 874.1 288.0 874.3 288.4 C 875.2 290.4 874.7 292.7 875.8 294.6 C 876.0 296.2 876.0 297.8 876.1 299.4 C 876.8 300.5 877.1 301.7 877.0 303.0 C 877.0 421.7 877.0 540.4 877.0 659.1 C 877.1 660.3 876.8 661.5 876.1 662.6 C 875.9 664.9 876.4 667.5 875.2 669.6 C 875.0 671.3 875.0 673.0 874.3 674.6 C 874.0 675.9 873.8 677.3 873.3 678.6 C 873.0 679.9 872.8 681.3 872.2 682.6 C 872.1 683.0 871.9 684.0 871.8 684.4 C 871.4 685.4 871.0 686.4 870.7 687.5 C 870.3 688.4 870.0 689.4 869.7 690.5 C 869.3 691.5 869.0 692.5 868.8 693.6 C 868.2 694.5 867.7 695.5 867.1 696.5 C 867.1 697.0 867.0 698.0 866.9 698.5 C 866.3 699.5 865.7 700.5 865.1 701.5 C 865.0 702.0 864.9 703.0 864.9 703.5 C 864.1 704.8 863.4 706.2 862.7 707.5 C 862.5 708.0 862.0 709.1 861.7 709.6 C 860.5 712.3 858.8 714.8 857.3 717.4 C 851.8 726.4 845.4 734.7 838.8 742.8 C 834.2 747.2 829.9 751.9 825.1 756.2 C 822.1 758.0 819.9 760.9 817.0 763.0 C 811.1 767.4 805.8 772.5 799.9 776.8 C 795.3 779.5 791.3 783.0 786.4 785.2 C 784.4 786.4 782.6 787.6 780.6 788.7 C 778.4 789.7 776.4 791.0 774.4 792.3 C 772.4 793.4 770.5 794.6 768.6 795.7 C 766.1 796.8 763.9 798.4 761.6 799.8 C 759.1 800.9 756.9 802.4 754.6 803.7 C 752.6 805.0 750.6 806.3 748.4 807.2 C 746.1 808.6 743.9 810.1 741.4 811.3 C 739.7 812.2 738.1 813.3 736.4 814.3 C 734.1 815.6 731.9 817.1 729.4 818.2 C 727.1 819.6 724.9 821.2 722.4 822.2 C 720.1 823.6 717.9 825.1 715.4 826.3 C 713.7 827.2 712.1 828.3 710.4 829.3 C 708.1 830.6 705.9 832.1 703.4 833.2 C 701.1 834.6 698.9 836.2 696.4 837.3 C 694.4 838.4 692.5 839.6 690.6 840.7 C 688.6 842.0 686.6 843.3 684.4 844.3 C 682.4 845.4 680.5 846.6 678.6 847.7 C 676.1 848.8 673.9 850.4 671.6 851.8 C 669.1 852.8 666.9 854.4 664.6 855.7 C 662.6 857.0 660.6 858.3 658.4 859.2 C 656.1 860.6 653.9 862.1 651.4 863.3 C 649.7 864.2 648.1 865.3 646.4 866.3 C 644.4 867.4 642.5 868.6 640.6 869.7 C 638.1 870.8 635.9 872.4 633.6 873.8 C 630.7 875.0 628.3 877.0 625.4 878.3 C 623.7 879.2 622.1 880.3 620.4 881.3 C 618.1 882.6 615.9 884.1 613.4 885.2 C 611.1 886.6 608.9 888.1 606.4 889.3 C 604.4 890.4 602.5 891.6 600.6 892.7 C 598.6 894.0 596.6 895.3 594.4 896.2 C 592.1 897.6 589.9 899.2 587.4 900.3 C 585.4 901.4 583.6 902.6 581.6 903.7 C 579.4 904.7 577.4 906.0 575.4 907.3 C 573.4 908.4 571.5 909.6 569.6 910.7 C 566.7 912.0 564.3 914.0 561.4 915.3 C 559.4 916.4 557.6 917.6 555.6 918.7 C 553.4 919.7 551.4 921.0 549.4 922.3 C 547.4 923.4 545.5 924.6 543.6 925.7 C 541.4 926.7 539.4 928.0 537.4 929.3 C 535.1 930.6 532.9 932.1 530.4 933.3 C 527.8 934.8 525.3 936.5 522.5 937.7 C 520.1 938.9 517.9 940.4 515.6 941.8 C 514.5 942.3 513.5 942.7 512.4 943.2 C 511.1 943.9 509.8 944.6 508.5 945.3 C 508.0 945.5 506.9 946.0 506.4 946.2 C 505.4 946.8 504.5 947.3 503.5 947.9 C 503.0 947.9 502.0 948.0 501.5 948.1 C 500.5 948.7 499.5 949.3 498.5 949.9 C 498.0 950.0 497.0 950.0 496.5 950.1 C 495.5 950.7 494.5 951.3 493.5 951.9 C 493.0 952.0 492.1 952.1 491.6 952.2 C 490.6 952.6 489.6 953.0 488.6 953.4 C 487.5 953.7 486.5 954.0 485.5 954.3 C 484.5 954.6 483.5 955.0 482.6 955.4 C 481.2 955.7 479.9 956.0 478.6 956.3 C 477.3 956.8 475.9 957.0 474.6 957.3 C 472.6 958.2 470.3 957.7 468.4 958.8 C 467.1 958.9 465.9 959.0 464.6 959.2 C 462.1 960.9 458.8 959.1 456.4 960.9 C 445.3 961.1 434.2 961.1 423.0 960.9 C 422.6 960.7 421.8 960.3 421.4 960.1 C 419.1 959.9 416.5 960.5 414.4 959.2 C 413.1 959.0 411.9 958.9 410.6 958.8 C 408.7 957.7 406.4 958.2 404.4 957.3 C 403.1 957.0 401.7 956.8 400.4 956.2 C 400.0 956.1 399.0 955.9 398.6 955.8 C 396.9 955.2 395.2 954.8 393.5 954.3 C 392.5 954.0 391.5 953.6 390.5 953.3 C 389.5 953.0 388.4 952.7 387.4 952.4 C 386.4 952.0 385.4 951.6 384.4 951.2 C 384.0 951.1 383.0 950.9 382.5 950.9 C 380.8 949.9 379.2 949.0 377.5 948.1 C 377.0 948.1 376.0 947.9 375.5 947.9 C 374.5 947.3 373.5 946.8 372.6 946.2 C 371.5 945.7 370.5 945.2 369.4 944.8 C 367.8 943.9 366.2 943.1 364.5 942.3 C 361.7 940.9 359.3 939.0 356.5 937.7 C 353.7 936.5 351.2 934.8 348.6 933.2 C 346.4 932.3 344.4 931.0 342.4 929.7 C 340.4 928.6 338.5 927.4 336.6 926.3 C 334.1 925.1 331.9 923.6 329.6 922.3 C 327.9 921.3 326.3 920.2 324.6 919.3 C 321.7 918.0 319.3 916.0 316.4 914.7 C 313.8 913.2 311.3 911.5 308.5 910.3 C 306.1 909.1 303.9 907.6 301.6 906.2 C 299.4 905.3 297.4 904.0 295.4 902.7 C 293.5 901.6 291.5 900.4 289.6 899.3 C 287.9 898.3 286.3 897.2 284.6 896.3 C 282.9 895.3 281.3 894.2 279.6 893.3 C 277.6 892.0 275.6 890.7 273.4 889.8 C 270.8 888.2 268.3 886.5 265.5 885.3 C 262.7 884.0 260.3 882.0 257.4 880.7 C 255.5 879.6 253.6 878.4 251.6 877.3 C 249.9 876.3 248.3 875.2 246.6 874.3 C 244.1 873.1 241.9 871.6 239.6 870.3 C 237.6 869.0 235.6 867.7 233.4 866.7 C 231.4 865.6 229.6 864.4 227.6 863.3 C 225.6 862.0 223.6 860.7 221.4 859.7 C 219.4 858.6 217.6 857.4 215.6 856.3 C 212.7 855.0 210.3 853.0 207.4 851.7 C 205.4 850.6 203.6 849.4 201.6 848.3 C 199.4 847.3 197.4 846.0 195.4 844.7 C 193.1 843.4 190.9 841.9 188.4 840.7 C 186.4 839.6 184.6 838.4 182.6 837.3 C 180.4 836.3 178.4 835.0 176.4 833.7 C 174.4 832.6 172.5 831.4 170.6 830.3 C 168.1 829.1 165.9 827.6 163.6 826.2 C 161.1 825.2 158.9 823.6 156.6 822.2 C 154.1 821.2 151.9 819.6 149.6 818.2 C 147.4 817.3 145.4 816.0 143.4 814.7 C 141.1 813.4 138.9 811.8 136.4 810.7 C 134.4 809.6 132.6 808.4 130.6 807.3 C 128.1 806.2 125.9 804.6 123.6 803.2 C 121.4 802.3 119.4 801.0 117.4 799.7 C 115.4 798.6 113.5 797.4 111.6 796.3 C 109.1 795.1 106.9 793.6 104.6 792.3 C 102.6 791.0 100.6 789.7 98.4 788.7 C 96.4 787.6 94.6 786.4 92.6 785.3 C 90.9 784.3 89.3 783.2 87.6 782.3 C 75.3 775.0 64.8 765.1 54.0 756.0 C 41.4 745.5 31.2 732.4 22.7 718.4 C 21.6 716.4 20.4 714.5 19.3 712.6 C 18.0 710.6 16.7 708.6 15.7 706.4 C 15.2 705.5 14.7 704.5 14.1 703.5 C 14.1 703.0 14.0 702.0 13.9 701.5 C 13.3 700.5 12.7 699.5 12.1 698.5 C 12.0 698.0 11.9 697.1 11.8 696.6 C 11.4 695.5 11.1 694.5 10.7 693.5 C 10.2 692.5 9.7 691.5 9.1 690.5 C 9.0 690.0 8.9 689.1 8.8 688.6 C 8.4 687.6 8.0 686.5 7.7 685.5 C 7.3 684.5 7.0 683.5 6.7 682.5 C 6.2 680.8 5.8 679.1 5.2 677.4 C 5.1 676.5 4.9 675.5 4.8 674.6 C 3.7 672.7 4.3 670.3 3.2 668.4 C 3.0 667.1 3.0 665.9 2.8 664.6 C 1.1 662.1 2.9 658.8 1.1 656.4 C 0.8 539.6 1.1 422.8 1.0 306.0 C 1.0 304.1 0.7 302.1 1.8 300.4 C 2.0 298.4 1.8 296.3 2.7 294.4 C 3.0 293.1 3.2 291.7 3.7 290.4 C 4.0 289.1 4.2 287.7 4.8 286.4 C 4.9 285.5 5.1 284.5 5.2 283.6 C 5.6 282.5 5.9 281.5 6.2 280.5 C 6.8 279.5 7.3 278.5 7.9 277.5 C 7.9 277.0 8.0 276.0 8.1 275.5 C 8.7 274.5 9.3 273.5 9.9 272.5 C 10.0 272.0 10.1 271.0 10.1 270.5 C 11.0 268.9 11.9 267.2 12.7 265.6 C 13.7 263.5 14.7 261.6 15.7 259.5 C 16.7 257.4 18.0 255.4 19.3 253.4 C 26.2 241.6 35.1 231.2 43.6 220.5 C 46.2 216.5 50.4 213.9 52.8 209.9 C 56.3 206.1 59.9 202.1 64.1 199.2 C 67.0 197.0 69.1 194.0 71.9 191.8 C 79.6 186.1 87.1 180.0 95.4 175.3 C 97.1 174.3 98.7 173.2 100.4 172.3 C 102.1 171.3 103.7 170.2 105.4 169.3 C 107.4 168.0 109.4 166.7 111.6 165.8 C 114.2 164.2 116.7 162.5 119.5 161.3 C 121.9 160.1 124.1 158.6 126.4 157.3 C 127.8 156.4 129.2 155.6 130.6 154.7 C 132.6 153.6 134.4 152.4 136.4 151.3 C 138.6 150.3 140.6 149.0 142.6 147.7 C 144.6 146.6 146.5 145.4 148.4 144.3 C 151.3 143.0 153.7 141.0 156.6 139.7 C 158.3 138.8 159.9 137.7 161.6 136.7 C 163.9 135.4 166.1 133.9 168.6 132.7 C 170.6 131.6 172.4 130.4 174.4 129.3 C 176.9 128.1 179.1 126.6 181.4 125.3 C 183.1 124.3 184.7 123.2 186.4 122.3 C 188.9 121.2 191.1 119.6 193.4 118.2 C 196.3 117.0 198.7 115.0 201.6 113.7 C 203.6 112.6 205.4 111.4 207.4 110.3 C 209.6 109.3 211.6 108.0 213.6 106.7 C 215.9 105.4 218.1 103.9 220.6 102.7 C 222.6 101.6 224.4 100.4 226.4 99.3 C 228.9 98.1 231.1 96.6 233.4 95.3 C 235.4 94.0 237.4 92.7 239.6 91.7 C 241.5 90.6 243.4 89.4 245.4 88.3 C 247.1 87.3 248.7 86.2 250.4 85.3 C 252.9 84.1 255.1 82.6 257.4 81.3 C 259.1 80.3 260.7 79.2 262.4 78.3 C 264.9 77.2 267.1 75.6 269.4 74.2 C 272.3 73.0 274.7 71.0 277.6 69.7 C 279.6 68.6 281.4 67.4 283.4 66.3 C 285.6 65.3 287.6 64.0 289.6 62.7 C 291.5 61.6 293.4 60.4 295.4 59.3 C 297.9 58.2 300.1 56.6 302.4 55.2 C 304.9 54.2 307.1 52.6 309.4 51.3 C 311.4 50.0 313.4 48.7 315.6 47.8 C 317.9 46.4 320.1 44.8 322.6 43.7 C 324.6 42.6 326.4 41.4 328.4 40.3 C 330.9 39.2 333.1 37.6 335.4 36.2 C 337.9 35.2 340.1 33.6 342.4 32.3 C 344.1 31.3 345.7 30.2 347.4 29.3 C 349.7 27.8 352.0 26.4 354.5 25.3 C 357.3 24.0 359.7 22.0 362.5 20.7 C 364.2 19.9 365.8 19.1 367.4 18.3 C 369.1 17.4 370.9 16.6 372.6 15.8 C 373.5 15.2 374.5 14.7 375.5 14.1 C 376.0 14.1 377.0 14.0 377.5 13.9 C 378.5 13.3 379.5 12.7 380.5 12.1 C 381.0 12.0 382.0 11.9 382.5 11.9 C 383.5 11.3 384.5 10.8 385.5 10.2 C 386.5 9.9 387.5 9.6 388.6 9.2 C 389.0 9.1 390.0 8.9 390.5 8.8 C 391.8 8.3 393.2 7.7 394.5 7.2 C 395.0 7.1 396.0 6.9 396.4 6.8 C 397.4 6.4 398.4 6.0 399.4 5.6 C 401.4 5.0 403.7 5.2 405.6 4.2 C 406.5 4.1 407.5 3.9 408.4 3.8 C 410.6 2.4 413.4 3.6 415.6 2.2 C 417.3 2.0 419.1 2.2 420.6 1.1 M 418.4 104.6 C 402.6 107.4 387.5 113.7 373.7 121.8 C 307.4 160.2 241.1 198.5 174.7 236.7 C 168.5 240.5 162.1 243.8 156.5 248.4 C 150.1 253.5 144.0 259.1 138.5 265.2 L 138.4 265.1 C 129.4 273.9 122.0 284.1 114.9 294.4 C 111.3 299.7 107.9 305.4 105.0 311.2 C 101.0 319.7 97.5 328.7 96.7 338.2 L 96.9 338.9 L 96.3 338.9 C 96.3 339.4 96.1 340.4 96.1 341.0 C 96.0 432.3 96.1 523.7 96.0 615.0 C 95.5 629.8 99.7 644.5 106.5 657.5 C 113.7 671.3 123.2 683.8 133.9 695.1 C 143.4 703.6 152.6 712.9 164.0 719.0 C 229.2 756.4 294.2 794.3 359.3 831.7 C 368.2 837.0 377.2 842.3 386.5 846.9 C 392.7 849.8 399.1 852.4 405.8 854.2 C 415.0 856.8 424.4 859.2 434.0 858.9 C 440.8 858.7 447.7 859.4 454.5 858.4 C 464.0 857.1 473.3 854.6 482.3 851.2 C 495.2 846.5 506.8 839.1 518.7 832.3 L 517.8 832.4 C 519.2 832.3 520.4 831.3 521.7 830.7 C 535.2 822.9 548.8 815.0 562.3 807.1 L 562.5 806.7 C 565.7 805.3 568.6 803.4 571.7 801.7 C 615.1 776.9 658.2 751.5 701.6 726.7 C 711.9 720.4 723.3 715.6 731.8 706.8 C 738.8 699.8 746.2 693.2 752.8 685.9 C 761.6 676.9 768.0 665.9 774.0 655.0 C 780.4 643.4 783.4 630.2 783.9 617.0 C 783.8 529.3 783.8 441.7 783.8 354.0 C 783.8 350.0 784.1 345.9 783.4 342.0 C 782.5 334.7 780.6 327.6 778.0 320.7 C 775.5 314.2 772.7 307.7 768.8 301.9 L 768.8 301.7 C 765.4 296.3 761.8 290.9 758.0 285.7 C 753.2 279.0 748.0 272.5 742.2 266.6 C 733.9 258.1 725.5 249.8 715.5 243.4 C 652.9 207.0 590.0 170.9 527.4 134.6 C 510.4 124.8 493.8 113.8 474.8 108.1 C 465.0 104.5 454.4 103.4 444.0 103.1 C 435.4 103.1 426.8 103.0 418.4 104.6 Z" />
<path fill="#50d3d8" stroke="#50d3d8" stroke-width="0.09375" opacity="1.00" d=" M 418.4 104.6 C 426.8 103.0 435.4 103.1 444.0 103.1 C 454.4 103.4 465.0 104.5 474.8 108.1 C 493.8 113.8 510.4 124.8 527.4 134.6 C 590.0 170.9 652.9 207.0 715.5 243.4 C 725.5 249.8 733.9 258.1 742.2 266.6 C 741.1 266.9 740.0 267.2 738.9 267.5 C 737.9 268.9 737.4 270.9 735.6 271.5 C 732.8 272.9 729.0 273.1 727.2 276.0 C 722.4 283.6 712.3 284.2 705.9 289.8 C 702.2 294.4 697.5 298.1 693.1 301.9 C 688.0 306.0 681.9 308.1 676.5 311.6 C 670.8 315.4 664.0 317.3 658.4 321.3 C 653.9 317.0 648.0 314.6 642.6 311.3 C 631.6 305.5 621.4 298.1 610.0 292.9 C 604.4 290.4 598.0 289.8 591.9 291.2 C 581.8 293.8 575.2 303.8 575.0 314.0 C 575.0 332.3 575.0 350.6 575.0 369.0 C 567.5 372.7 560.3 377.1 552.7 380.7 C 545.8 383.9 539.2 387.7 532.0 390.3 C 532.0 361.2 532.0 332.1 532.0 303.0 C 531.7 293.6 532.9 283.7 529.3 274.7 C 525.3 263.5 522.0 251.3 513.0 243.0 C 509.4 239.9 507.3 235.4 503.5 232.4 C 496.9 227.0 489.2 223.5 482.0 219.0 C 475.5 215.0 468.8 210.8 461.1 209.7 C 457.9 209.1 454.4 207.5 451.3 209.2 C 444.7 212.1 438.6 216.5 434.5 222.5 C 431.9 227.3 429.3 232.4 429.0 238.0 C 427.5 259.6 428.1 281.3 428.0 303.0 C 428.0 319.1 428.0 335.3 428.0 351.4 C 421.3 347.8 416.4 342.0 411.9 336.1 C 404.5 330.3 397.5 323.7 389.4 318.9 C 384.2 316.1 379.9 312.2 375.0 309.0 C 374.7 296.3 375.8 283.5 373.8 270.9 C 373.3 266.0 371.0 261.5 368.9 257.0 C 366.9 252.5 362.3 249.8 357.8 248.2 C 353.3 247.4 348.7 248.9 344.4 250.5 C 336.1 254.2 328.3 258.8 320.6 263.6 C 291.4 280.5 262.1 297.0 233.0 314.1 C 226.3 318.3 218.8 321.7 213.7 328.1 C 207.2 323.4 199.8 320.2 192.9 316.1 C 190.6 314.8 188.2 313.3 185.6 312.5 C 181.6 311.8 177.2 313.8 173.4 311.6 C 169.2 309.4 164.3 307.6 161.5 303.6 C 159.1 300.4 156.9 297.0 154.5 293.9 C 156.3 292.5 158.1 291.1 159.8 289.6 C 157.3 287.9 154.8 286.1 152.3 284.4 C 155.0 280.8 158.0 277.5 161.0 274.2 C 158.4 272.8 155.6 271.7 153.4 269.6 C 153.2 267.7 153.3 265.8 153.3 263.8 C 151.9 263.5 150.5 263.0 149.0 262.9 C 146.7 263.8 144.9 265.6 142.8 266.8 C 141.2 266.6 139.9 265.7 138.5 265.2 C 144.0 259.1 150.1 253.5 156.5 248.4 C 162.1 243.8 168.5 240.5 174.7 236.7 C 241.1 198.5 307.4 160.2 373.7 121.8 C 387.5 113.7 402.6 107.4 418.4 104.6 Z" />
<path fill="#020304" stroke="#020304" stroke-width="0.09375" opacity="1.00" d=" M 451.3 209.2 C 454.4 207.5 457.9 209.1 461.1 209.7 C 468.8 210.8 475.5 215.0 482.0 219.0 C 489.2 223.5 496.9 227.0 503.5 232.4 C 507.3 235.4 509.4 239.9 513.0 243.0 C 522.0 251.3 525.3 263.5 529.3 274.7 C 532.9 283.7 531.7 293.6 532.0 303.0 C 532.0 332.1 532.0 361.2 532.0 390.3 C 532.0 396.9 532.0 403.5 532.0 410.1 C 532.0 420.7 531.9 431.4 532.0 442.1 C 532.0 446.9 532.0 451.7 532.0 456.6 C 532.0 511.0 532.0 565.5 532.0 620.0 C 531.8 635.0 532.3 650.0 531.7 665.0 C 531.7 670.3 532.3 675.7 531.8 681.0 C 531.4 685.8 528.8 690.0 527.8 694.7 C 526.2 702.4 521.6 708.9 517.3 715.4 C 512.5 722.9 506.7 730.2 499.0 734.9 C 492.0 739.3 485.0 743.7 477.8 747.7 C 472.0 750.7 466.4 754.5 459.8 755.3 C 455.1 755.8 450.6 756.6 446.0 757.5 C 439.4 758.9 432.8 757.2 426.3 756.2 C 421.4 755.9 416.4 755.2 412.0 753.0 C 402.0 748.3 392.4 742.8 382.9 737.1 C 355.8 722.1 329.4 705.7 302.2 690.8 C 275.9 674.5 248.0 660.8 222.0 643.9 C 217.5 640.9 214.4 636.2 210.5 632.5 C 204.6 627.4 201.2 620.2 197.5 613.4 C 194.7 608.8 194.7 603.3 192.6 598.4 C 189.5 591.7 190.1 584.1 190.0 577.0 C 190.0 520.3 190.0 463.7 190.0 407.0 C 190.1 397.0 189.8 387.0 190.4 377.1 C 190.6 374.3 191.0 371.6 191.9 368.9 C 193.8 362.9 195.0 356.6 197.7 350.8 C 199.8 346.6 202.0 342.4 204.7 338.6 C 207.7 335.0 210.8 331.7 213.7 328.1 C 218.8 321.7 226.3 318.3 233.0 314.1 C 262.1 297.0 291.4 280.5 320.6 263.6 C 328.3 258.8 336.1 254.2 344.4 250.5 C 348.7 248.9 353.3 247.4 357.8 248.2 C 362.3 249.8 366.9 252.5 368.9 257.0 C 371.0 261.5 373.3 266.0 373.8 270.9 C 375.8 283.5 374.7 296.3 375.0 309.0 C 375.0 318.0 375.3 327.2 373.1 336.0 C 371.2 343.0 366.8 348.9 362.7 354.8 C 360.6 358.1 357.2 360.1 354.0 362.0 C 349.2 364.7 345.8 369.3 340.8 371.8 C 330.3 377.5 319.2 383.1 311.7 392.7 C 306.1 399.9 301.2 407.9 298.3 416.6 C 297.6 420.8 295.2 424.6 295.0 428.9 C 294.9 431.2 294.9 433.5 294.8 435.8 C 293.6 450.5 294.1 465.3 294.0 480.0 C 293.8 493.7 294.3 507.3 293.8 521.0 C 293.5 527.1 294.8 533.0 295.9 539.0 C 297.7 548.0 300.8 557.1 306.4 564.5 C 310.2 569.4 313.2 575.1 318.6 578.5 C 323.2 581.4 326.8 585.7 331.6 588.3 C 342.3 594.4 353.3 599.7 363.8 606.2 C 371.7 610.4 379.2 615.4 387.0 620.0 C 395.1 625.0 404.1 629.8 414.0 629.6 C 418.4 628.8 422.9 625.8 424.6 621.5 C 426.3 617.5 428.1 613.4 427.9 609.0 C 428.1 571.9 427.9 534.8 428.0 497.6 C 428.0 487.7 428.0 477.8 428.0 467.9 C 428.0 462.3 428.0 456.6 428.0 451.0 C 428.0 417.8 428.0 384.6 428.0 351.4 C 428.0 335.3 428.0 319.1 428.0 303.0 C 428.1 281.3 427.5 259.6 429.0 238.0 C 429.3 232.4 431.9 227.3 434.5 222.5 C 438.6 216.5 444.7 212.1 451.3 209.2 Z" />
<path fill="#56cada" stroke="#56cada" stroke-width="0.09375" opacity="1.00" d=" M 142.8 266.8 C 144.9 265.6 146.7 263.8 149.0 262.9 C 150.5 263.0 151.9 263.5 153.3 263.8 C 153.3 265.8 153.2 267.7 153.4 269.6 C 155.6 271.7 158.4 272.8 161.0 274.2 C 158.0 277.5 155.0 280.8 152.3 284.4 C 154.8 286.1 157.3 287.9 159.8 289.6 C 158.1 291.1 156.3 292.5 154.5 293.9 C 153.2 294.8 151.9 295.7 150.6 296.6 C 147.9 295.2 145.4 292.4 142.2 293.2 C 140.2 293.5 138.1 293.0 136.2 292.4 C 136.3 294.7 136.8 297.0 136.3 299.2 C 135.3 300.8 133.2 301.2 131.6 301.9 C 130.4 304.2 129.1 306.4 127.8 308.5 C 126.7 307.5 125.5 306.6 124.6 305.4 C 124.0 302.0 124.8 298.4 123.1 295.2 C 121.6 296.1 120.1 297.0 118.7 298.0 C 117.4 296.8 116.1 295.6 114.9 294.4 C 122.0 284.1 129.4 273.9 138.4 265.1 L 138.5 265.2 C 139.9 265.7 141.2 266.6 142.8 266.8 Z" />
<path fill="#54c8d8" stroke="#54c8d8" stroke-width="0.09375" opacity="1.00" d=" M 738.9 267.5 C 740.0 267.2 741.1 266.9 742.2 266.6 C 748.0 272.5 753.2 279.0 758.0 285.7 C 754.8 290.0 757.1 296.3 752.9 300.1 C 752.0 298.8 751.1 297.5 750.2 296.2 C 748.2 300.2 746.5 304.5 742.8 307.3 C 742.0 307.3 741.3 307.4 740.6 307.4 C 740.1 306.2 739.6 305.1 739.1 303.9 C 735.9 307.2 736.5 312.3 734.1 316.1 C 729.4 319.3 724.0 321.5 718.9 323.9 C 716.7 325.3 714.4 322.7 712.3 324.3 C 700.6 330.6 688.0 335.1 676.8 342.3 C 673.2 333.3 664.3 328.6 658.4 321.3 C 664.0 317.3 670.8 315.4 676.5 311.6 C 681.9 308.1 688.0 306.0 693.1 301.9 C 697.5 298.1 702.2 294.4 705.9 289.8 C 712.3 284.2 722.4 283.6 727.2 276.0 C 729.0 273.1 732.8 272.9 735.6 271.5 C 737.4 270.9 737.9 268.9 738.9 267.5 Z" />
<path fill="#5fbcdb" stroke="#5fbcdb" stroke-width="0.09375" opacity="1.00" d=" M 752.9 300.1 C 757.1 296.3 754.8 290.0 758.0 285.7 C 761.8 290.9 765.4 296.3 768.8 301.7 L 768.8 301.9 C 768.1 303.9 767.7 306.0 767.4 308.0 C 766.4 307.3 765.5 306.6 764.6 305.9 C 762.8 307.3 760.7 309.2 758.3 307.9 C 758.1 309.8 758.1 311.8 757.5 313.7 C 756.5 315.4 754.9 316.6 753.6 317.9 C 752.8 317.0 751.9 316.2 751.1 315.4 C 747.2 317.2 743.8 319.8 740.4 322.2 C 741.0 317.2 741.8 312.2 742.8 307.3 C 746.5 304.5 748.2 300.2 750.2 296.2 C 751.1 297.5 752.0 298.8 752.9 300.1 Z" />
<path fill="#020304" stroke="#020304" stroke-width="0.09375" opacity="1.00" d=" M 575.0 314.0 C 575.2 303.8 581.8 293.8 591.9 291.2 C 598.0 289.8 604.4 290.4 610.0 292.9 C 621.4 298.1 631.6 305.5 642.6 311.3 C 648.0 314.6 653.9 317.0 658.4 321.3 C 664.3 328.6 673.2 333.3 676.8 342.3 C 678.3 345.6 680.2 348.7 682.4 351.6 C 686.1 356.1 684.2 362.5 687.2 367.4 C 690.6 376.9 688.4 387.3 689.0 397.2 C 689.0 461.5 689.0 525.7 689.0 590.0 C 689.2 595.3 685.9 599.8 684.9 604.9 C 684.0 610.5 680.3 615.0 677.8 619.9 C 675.6 624.2 673.1 628.3 669.6 631.6 C 665.4 635.5 662.8 640.9 657.6 643.7 C 640.7 653.3 624.2 664.0 606.7 672.7 C 601.5 675.5 595.4 674.7 589.8 673.4 C 584.8 672.2 582.4 667.2 579.5 663.5 C 575.6 658.6 575.2 652.0 575.0 646.0 C 575.0 574.7 575.0 503.4 575.0 432.0 C 575.0 427.7 575.0 423.3 575.0 419.0 C 575.0 408.9 575.0 398.8 575.0 388.8 C 575.0 382.2 575.0 375.6 575.0 369.0 C 575.0 350.6 575.0 332.3 575.0 314.0 Z" />
<path fill="#4fc0d9" stroke="#4fc0d9" stroke-width="0.09375" opacity="1.00" d=" M 136.2 292.4 C 138.1 293.0 140.2 293.5 142.2 293.2 C 145.4 292.4 147.9 295.2 150.6 296.6 C 151.9 295.7 153.2 294.8 154.5 293.9 C 156.9 297.0 159.1 300.4 161.5 303.6 C 164.3 307.6 169.2 309.4 173.4 311.6 C 177.2 313.8 181.6 311.8 185.6 312.5 C 188.2 313.3 190.6 314.8 192.9 316.1 C 199.8 320.2 207.2 323.4 213.7 328.1 C 210.8 331.7 207.7 335.0 204.7 338.6 C 202.0 342.4 199.8 346.6 197.7 350.8 C 196.2 349.4 194.8 347.9 193.1 346.9 C 177.6 337.8 160.8 331.4 145.0 323.0 C 140.8 320.5 138.1 316.1 133.6 314.0 C 131.5 312.7 129.5 311.3 127.6 309.9 C 127.6 309.6 127.7 308.9 127.8 308.5 C 129.1 306.4 130.4 304.2 131.6 301.9 C 133.2 301.2 135.3 300.8 136.3 299.2 C 136.8 297.0 136.3 294.7 136.2 292.4 Z" />
<path fill="#57b7dd" stroke="#57b7dd" stroke-width="0.09375" opacity="1.00" d=" M 105.0 311.2 C 107.9 305.4 111.3 299.7 114.9 294.4 C 116.1 295.6 117.4 296.8 118.7 298.0 C 120.1 297.0 121.6 296.1 123.1 295.2 C 124.8 298.4 124.0 302.0 124.6 305.4 C 125.5 306.6 126.7 307.5 127.8 308.5 C 127.7 308.9 127.6 309.6 127.6 309.9 C 129.5 311.3 131.5 312.7 133.6 314.0 C 132.4 315.0 131.3 316.0 130.1 317.0 C 128.3 315.2 126.4 313.6 124.4 312.1 C 123.3 313.2 122.2 314.3 121.1 315.5 C 118.7 313.5 116.3 316.0 114.1 317.1 C 111.7 315.1 109.5 312.9 107.8 310.3 C 106.9 310.6 106.0 310.9 105.0 311.2 Z" />
<path fill="#65afde" stroke="#65afde" stroke-width="0.09375" opacity="1.00" d=" M 767.4 308.0 C 767.7 306.0 768.1 303.9 768.8 301.9 C 772.7 307.7 775.5 314.2 778.0 320.7 C 775.2 322.0 772.6 324.0 769.8 325.3 C 766.6 325.8 763.4 325.8 760.4 326.9 C 760.1 326.1 759.9 325.3 759.7 324.5 C 759.2 324.8 758.3 325.3 757.9 325.5 C 756.3 323.1 755.0 320.5 753.6 317.9 C 754.9 316.6 756.5 315.4 757.5 313.7 C 758.1 311.8 758.1 309.8 758.3 307.9 C 760.7 309.2 762.8 307.3 764.6 305.9 C 765.5 306.6 766.4 307.3 767.4 308.0 Z" />
<path fill="#59afdb" stroke="#59afdb" stroke-width="0.09375" opacity="1.00" d=" M 734.1 316.1 C 736.5 312.3 735.9 307.2 739.1 303.9 C 739.6 305.1 740.1 306.2 740.6 307.4 C 741.3 307.4 742.0 307.3 742.8 307.3 C 741.8 312.2 741.0 317.2 740.4 322.2 C 743.8 319.8 747.2 317.2 751.1 315.4 C 751.9 316.2 752.8 317.0 753.6 317.9 C 755.0 320.5 756.3 323.1 757.9 325.5 C 754.8 327.4 751.1 328.7 749.5 332.2 C 748.6 334.4 747.0 336.1 744.7 336.8 C 744.4 336.2 743.7 335.0 743.3 334.4 C 739.7 336.4 736.1 338.5 732.6 340.6 C 727.4 343.5 723.8 348.6 718.3 351.3 C 707.9 356.6 697.3 361.6 687.2 367.4 C 684.2 362.5 686.1 356.1 682.4 351.6 C 680.2 348.7 678.3 345.6 676.8 342.3 C 688.0 335.1 700.6 330.6 712.3 324.3 C 714.4 322.7 716.7 325.3 718.9 323.9 C 724.0 321.5 729.4 319.3 734.1 316.1 Z" />
<path fill="#50d1d6" stroke="#50d1d6" stroke-width="0.09375" opacity="1.00" d=" M 375.0 309.0 C 379.9 312.2 384.2 316.1 389.4 318.9 C 397.5 323.7 404.5 330.3 411.9 336.1 C 416.4 342.0 421.3 347.8 428.0 351.4 C 428.0 384.6 428.0 417.8 428.0 451.0 C 421.7 450.6 415.3 450.1 409.0 449.9 C 402.4 449.6 396.4 446.9 390.3 444.8 C 382.8 442.5 379.9 434.2 373.2 430.7 C 359.0 422.8 344.8 414.8 331.1 405.9 C 324.6 401.5 317.8 397.7 311.7 392.7 C 319.2 383.1 330.3 377.5 340.8 371.8 C 345.8 369.3 349.2 364.7 354.0 362.0 C 357.2 360.1 360.6 358.1 362.7 354.8 C 366.8 348.9 371.2 343.0 373.1 336.0 C 375.3 327.2 375.0 318.0 375.0 309.0 Z" />
<path fill="#53afdf" stroke="#53afdf" stroke-width="0.09375" opacity="1.00" d=" M 105.0 311.2 C 106.0 310.9 106.9 310.6 107.8 310.3 C 109.5 312.9 111.7 315.1 114.1 317.1 C 116.3 316.0 118.7 313.5 121.1 315.5 C 122.6 317.5 124.1 319.7 125.6 321.8 C 121.9 326.0 118.1 330.1 115.1 334.9 C 113.7 334.8 112.4 334.7 111.1 334.6 C 108.7 337.8 108.1 341.8 108.3 345.7 C 106.7 346.1 105.1 346.4 103.4 346.8 C 103.4 345.6 103.3 344.3 103.3 343.0 C 101.7 343.1 100.1 343.3 98.5 343.4 C 98.5 342.1 98.5 340.9 98.5 339.6 C 98.1 339.4 97.3 339.0 96.9 338.9 L 96.7 338.2 C 97.5 328.7 101.0 319.7 105.0 311.2 Z" />
<path fill="#4db3dd" stroke="#4db3dd" stroke-width="0.09375" opacity="1.00" d=" M 124.4 312.1 C 126.4 313.6 128.3 315.2 130.1 317.0 C 131.3 316.0 132.4 315.0 133.6 314.0 C 138.1 316.1 140.8 320.5 145.0 323.0 C 160.8 331.4 177.6 337.8 193.1 346.9 C 194.8 347.9 196.2 349.4 197.7 350.8 C 195.0 356.6 193.8 362.9 191.9 368.9 C 191.0 371.6 190.6 374.3 190.4 377.1 C 182.6 373.6 175.4 368.9 167.7 365.2 C 163.8 363.4 159.9 361.8 156.0 359.9 C 147.8 355.9 139.2 352.8 131.1 348.5 C 132.6 346.2 134.5 344.2 136.7 342.5 C 133.6 340.9 130.6 338.6 127.1 338.2 C 124.9 339.2 124.0 341.9 122.5 343.8 C 121.4 341.8 120.3 339.8 119.2 337.9 C 115.7 342.2 114.4 347.6 111.9 352.4 C 111.1 350.6 109.1 348.9 109.9 346.8 C 111.3 342.7 113.2 338.7 115.1 334.9 C 118.1 330.1 121.9 326.0 125.6 321.8 C 124.1 319.7 122.6 317.5 121.1 315.5 C 122.2 314.3 123.3 313.2 124.4 312.1 Z" />
<path fill="#649ddf" stroke="#649ddf" stroke-width="0.09375" opacity="1.00" d=" M 769.8 325.3 C 772.6 324.0 775.2 322.0 778.0 320.7 C 780.6 327.6 782.5 334.7 783.4 342.0 C 783.4 349.4 783.5 356.8 782.9 364.2 C 780.3 363.2 777.3 362.9 775.2 360.9 C 773.2 357.3 771.9 353.3 769.7 349.8 C 768.6 352.8 767.5 355.9 766.1 358.8 C 764.9 356.9 763.7 355.0 762.9 352.9 C 762.0 349.0 761.0 345.1 759.9 341.2 C 758.9 342.4 758.0 343.7 757.0 344.9 C 756.6 342.8 756.3 340.7 756.0 338.6 C 757.9 337.7 759.9 336.8 761.6 335.5 C 761.9 332.6 761.1 329.7 760.4 326.9 C 763.4 325.8 766.6 325.8 769.8 325.3 Z" />
<path fill="#5c99de" stroke="#5c99de" stroke-width="0.09375" opacity="1.00" d=" M 757.9 325.5 C 758.3 325.3 759.2 324.8 759.7 324.5 C 759.9 325.3 760.1 326.1 760.4 326.9 C 761.1 329.7 761.9 332.6 761.6 335.5 C 759.9 336.8 757.9 337.7 756.0 338.6 C 756.3 340.7 756.6 342.8 757.0 344.9 C 758.0 343.7 758.9 342.4 759.9 341.2 C 761.0 345.1 762.0 349.0 762.9 352.9 C 759.3 353.8 755.7 354.9 752.2 356.2 C 752.0 359.9 752.5 363.8 751.4 367.4 C 744.5 370.7 736.9 372.5 730.0 376.0 C 721.2 380.5 712.1 384.5 703.4 389.3 C 698.6 391.9 693.9 394.7 689.0 397.2 C 688.4 387.3 690.6 376.9 687.2 367.4 C 697.3 361.6 707.9 356.6 718.3 351.3 C 723.8 348.6 727.4 343.5 732.6 340.6 C 736.1 338.5 739.7 336.4 743.3 334.4 C 743.7 335.0 744.4 336.2 744.7 336.8 C 747.0 336.1 748.6 334.4 749.5 332.2 C 751.1 328.7 754.8 327.4 757.9 325.5 Z" />
<path fill="#4da8e1" stroke="#4da8e1" stroke-width="0.09375" opacity="1.00" d=" M 111.1 334.6 C 112.4 334.7 113.7 334.8 115.1 334.9 C 113.2 338.7 111.3 342.7 109.9 346.8 C 109.1 348.9 111.1 350.6 111.9 352.4 C 114.4 347.6 115.7 342.2 119.2 337.9 C 120.3 339.8 121.4 341.8 122.5 343.8 C 124.0 341.9 124.9 339.2 127.1 338.2 C 130.6 338.6 133.6 340.9 136.7 342.5 C 134.5 344.2 132.6 346.2 131.1 348.5 C 139.2 352.8 147.8 355.9 156.0 359.9 C 159.9 361.8 163.8 363.4 167.7 365.2 C 175.4 368.9 182.6 373.6 190.4 377.1 C 189.8 387.0 190.1 397.0 190.0 407.0 C 190.0 463.7 190.0 520.3 190.0 577.0 C 190.1 584.1 189.5 591.7 192.6 598.4 C 194.7 603.3 194.7 608.8 197.5 613.4 C 201.2 620.2 204.6 627.4 210.5 632.5 C 214.4 636.2 217.5 640.9 222.0 643.9 C 248.0 660.8 275.9 674.5 302.2 690.8 C 329.4 705.7 355.8 722.1 382.9 737.1 C 392.4 742.8 402.0 748.3 412.0 753.0 C 416.4 755.2 421.4 755.9 426.3 756.2 C 422.7 763.9 421.1 772.4 420.6 780.8 C 420.3 784.7 419.2 788.5 418.3 792.3 C 417.6 795.7 419.0 799.2 418.6 802.7 C 417.5 804.8 415.8 806.4 414.6 808.5 C 414.9 811.2 416.9 813.4 418.3 815.7 C 417.0 816.5 415.7 817.3 414.4 818.1 C 415.1 819.7 415.9 821.2 416.6 822.8 C 416.3 823.4 416.0 824.1 415.7 824.8 C 413.2 824.5 410.4 823.7 408.0 825.0 C 403.1 826.8 398.6 831.0 393.0 830.0 C 388.2 829.4 383.7 831.6 379.0 831.8 C 372.4 832.2 365.9 831.8 359.3 831.7 C 294.2 794.3 229.2 756.4 164.0 719.0 C 152.6 712.9 143.4 703.6 133.9 695.1 C 123.2 683.8 113.7 671.3 106.5 657.5 C 99.7 644.5 95.5 629.8 96.0 615.0 C 96.1 523.7 96.0 432.3 96.1 341.0 C 96.1 340.4 96.3 339.4 96.3 338.9 L 96.9 338.9 C 97.3 339.0 98.1 339.4 98.5 339.6 C 98.5 340.9 98.5 342.1 98.5 343.4 C 100.1 343.3 101.7 343.1 103.3 343.0 C 103.3 344.3 103.4 345.6 103.4 346.8 C 105.1 346.4 106.7 346.1 108.3 345.7 C 108.1 341.8 108.7 337.8 111.1 334.6 Z" />
<path fill="#6494e2" stroke="#6494e2" stroke-width="0.09375" opacity="1.00" d=" M 783.4 342.0 C 784.1 345.9 783.8 350.0 783.8 354.0 C 783.8 441.7 783.8 529.3 783.9 617.0 C 783.4 630.2 780.4 643.4 774.0 655.0 C 768.0 665.9 761.6 676.9 752.8 685.9 C 746.2 693.2 738.8 699.8 731.8 706.8 C 723.3 715.6 711.9 720.4 701.6 726.7 C 658.2 751.5 615.1 776.9 571.7 801.7 C 568.6 803.4 565.7 805.3 562.5 806.7 C 564.4 801.6 570.1 799.5 573.6 795.6 C 581.8 787.4 590.7 780.0 599.3 772.3 C 622.0 753.4 647.1 737.7 672.0 722.0 C 691.9 708.8 712.2 696.0 730.2 680.2 C 735.7 674.7 741.8 669.7 746.4 663.4 C 755.2 651.9 761.0 638.3 763.0 624.0 C 764.6 616.1 763.8 608.0 764.0 600.0 C 764.0 589.4 764.1 578.7 763.4 568.1 C 764.5 559.5 763.3 550.6 764.9 542.0 C 766.3 528.1 772.3 515.3 775.6 501.8 C 777.6 493.7 779.5 485.6 781.6 477.6 C 783.5 470.5 782.5 463.2 782.7 456.0 C 782.9 429.4 782.7 402.7 782.7 376.0 C 782.6 372.1 782.7 368.1 782.9 364.2 C 783.5 356.8 783.4 349.4 783.4 342.0 Z" />
<path fill="#5f90e1" stroke="#5f90e1" stroke-width="0.09375" opacity="1.00" d=" M 766.1 358.8 C 767.5 355.9 768.6 352.8 769.7 349.8 C 771.9 353.3 773.2 357.3 775.2 360.9 C 777.3 362.9 780.3 363.2 782.9 364.2 C 782.7 368.1 782.6 372.1 782.7 376.0 C 782.7 402.7 782.9 429.4 782.7 456.0 C 782.5 463.2 783.5 470.5 781.6 477.6 C 779.5 485.6 777.6 493.7 775.6 501.8 C 772.3 515.3 766.3 528.1 764.9 542.0 C 763.3 550.6 764.5 559.5 763.4 568.1 C 764.1 578.7 764.0 589.4 764.0 600.0 C 763.8 608.0 764.6 616.1 763.0 624.0 C 761.0 638.3 755.2 651.9 746.4 663.4 C 741.8 669.7 735.7 674.7 730.2 680.2 C 712.2 696.0 691.9 708.8 672.0 722.0 C 647.1 737.7 622.0 753.4 599.3 772.3 C 590.7 780.0 581.8 787.4 573.6 795.6 C 570.1 799.5 564.4 801.6 562.5 806.7 L 562.3 807.1 C 548.8 815.0 535.2 822.9 521.7 830.7 C 520.4 831.3 519.2 832.3 517.8 832.4 C 512.8 832.4 507.9 833.1 503.0 834.1 C 496.4 835.5 489.6 834.9 483.0 835.8 C 479.0 836.4 475.0 836.1 471.2 835.2 C 472.0 834.2 472.9 833.3 473.8 832.4 C 472.5 831.0 471.1 829.7 469.8 828.3 C 467.0 828.8 464.2 829.3 461.4 829.7 C 459.8 828.3 458.2 826.9 456.7 825.6 C 457.4 825.2 458.2 824.9 459.0 824.6 C 459.6 822.6 460.6 820.9 461.9 819.4 C 460.9 815.6 464.5 813.1 467.1 811.2 C 470.1 809.1 474.1 808.3 476.0 805.0 C 479.3 799.6 480.6 793.3 481.1 787.0 C 481.5 781.7 483.0 776.4 482.3 771.0 C 481.3 763.1 480.5 755.2 477.8 747.7 C 485.0 743.7 492.0 739.3 499.0 734.9 C 506.7 730.2 512.5 722.9 517.3 715.4 C 521.6 708.9 526.2 702.4 527.8 694.7 C 528.8 690.0 531.4 685.8 531.8 681.0 C 532.3 675.7 531.7 670.3 531.7 665.0 C 532.3 650.0 531.8 635.0 532.0 620.0 C 532.0 565.5 532.0 511.0 532.0 456.6 C 546.8 449.2 560.4 439.8 575.0 432.0 C 575.0 503.4 575.0 574.7 575.0 646.0 C 575.2 652.0 575.6 658.6 579.5 663.5 C 582.4 667.2 584.8 672.2 589.8 673.4 C 595.4 674.7 601.5 675.5 606.7 672.7 C 624.2 664.0 640.7 653.3 657.6 643.7 C 662.8 640.9 665.4 635.5 669.6 631.6 C 673.1 628.3 675.6 624.2 677.8 619.9 C 680.3 615.0 684.0 610.5 684.9 604.9 C 685.9 599.8 689.2 595.3 689.0 590.0 C 689.0 525.7 689.0 461.5 689.0 397.2 C 693.9 394.7 698.6 391.9 703.4 389.3 C 712.1 384.5 721.2 380.5 730.0 376.0 C 736.9 372.5 744.5 370.7 751.4 367.4 C 752.5 363.8 752.0 359.9 752.2 356.2 C 755.7 354.9 759.3 353.8 762.9 352.9 C 763.7 355.0 764.9 356.9 766.1 358.8 Z" />
<path fill="#52cad6" stroke="#52cad6" stroke-width="0.09375" opacity="1.00" d=" M 552.7 380.7 C 560.3 377.1 567.5 372.7 575.0 369.0 C 575.0 375.6 575.0 382.2 575.0 388.8 C 560.5 395.5 546.4 403.1 532.0 410.1 C 532.0 403.5 532.0 396.9 532.0 390.3 C 539.2 387.7 545.8 383.9 552.7 380.7 Z" />
<path fill="#56b9da" stroke="#56b9da" stroke-width="0.09375" opacity="1.00" d=" M 532.0 410.1 C 546.4 403.1 560.5 395.5 575.0 388.8 C 575.0 398.8 575.0 408.9 575.0 419.0 C 565.8 423.2 557.2 428.5 548.2 433.2 C 542.7 436.0 537.3 438.9 532.0 442.1 C 531.9 431.4 532.0 420.7 532.0 410.1 Z" />
<path fill="#4fc0d9" stroke="#4fc0d9" stroke-width="0.09375" opacity="1.00" d=" M 298.3 416.6 C 301.2 407.9 306.1 399.9 311.7 392.7 C 317.8 397.7 324.6 401.5 331.1 405.9 C 344.8 414.8 359.0 422.8 373.2 430.7 C 379.9 434.2 382.8 442.5 390.3 444.8 C 396.4 446.9 402.4 449.6 409.0 449.9 C 415.3 450.1 421.7 450.6 428.0 451.0 C 428.0 456.6 428.0 462.3 428.0 467.9 C 425.5 468.1 422.9 467.9 420.5 468.6 C 418.7 469.7 417.3 471.4 415.8 472.9 C 400.0 471.6 384.6 466.8 370.6 459.3 C 365.5 456.7 360.3 454.3 355.3 451.7 C 351.1 449.7 348.6 445.6 344.6 443.4 C 336.4 438.8 328.5 433.9 320.0 430.0 C 312.4 426.2 305.4 421.3 298.3 416.6 Z" />
<path fill="#4db0dd" stroke="#4db0dd" stroke-width="0.09375" opacity="1.00" d=" M 295.0 428.9 C 295.2 424.6 297.6 420.8 298.3 416.6 C 305.4 421.3 312.4 426.2 320.0 430.0 C 328.5 433.9 336.4 438.8 344.6 443.4 C 348.6 445.6 351.1 449.7 355.3 451.7 C 360.3 454.3 365.5 456.7 370.6 459.3 C 384.6 466.8 400.0 471.6 415.8 472.9 C 417.3 471.4 418.7 469.7 420.5 468.6 C 422.9 467.9 425.5 468.1 428.0 467.9 C 428.0 477.8 428.0 487.7 428.0 497.6 C 424.3 499.9 420.1 501.2 415.8 501.7 C 412.0 502.0 409.3 505.5 405.4 505.5 C 400.4 505.7 395.5 504.5 390.6 503.5 C 386.6 502.5 382.4 501.6 379.0 499.1 C 378.4 496.9 378.6 494.5 377.5 492.6 C 376.3 491.6 374.8 491.1 373.4 490.5 C 355.5 483.7 338.7 474.3 322.0 464.9 C 314.0 460.4 306.5 455.2 298.6 450.5 C 297.2 449.5 295.5 448.6 294.9 446.9 C 294.5 443.2 294.8 439.5 294.8 435.8 C 294.9 433.5 294.9 431.2 295.0 428.9 Z" />
<path fill="#59a9dd" stroke="#59a9dd" stroke-width="0.09375" opacity="1.00" d=" M 548.2 433.2 C 557.2 428.5 565.8 423.2 575.0 419.0 C 575.0 423.3 575.0 427.7 575.0 432.0 C 560.4 439.8 546.8 449.2 532.0 456.6 C 532.0 451.7 532.0 446.9 532.0 442.1 C 537.3 438.9 542.7 436.0 548.2 433.2 Z" />
<path fill="#4da4e1" stroke="#4da4e1" stroke-width="0.09375" opacity="1.00" d=" M 294.0 480.0 C 294.1 465.3 293.6 450.5 294.8 435.8 C 294.8 439.5 294.5 443.2 294.9 446.9 C 295.5 448.6 297.2 449.5 298.6 450.5 C 306.5 455.2 314.0 460.4 322.0 464.9 C 338.7 474.3 355.5 483.7 373.4 490.5 C 374.8 491.1 376.3 491.6 377.5 492.6 C 378.6 494.5 378.4 496.9 379.0 499.1 C 382.4 501.6 386.6 502.5 390.6 503.5 C 395.5 504.5 400.4 505.7 405.4 505.5 C 409.3 505.5 412.0 502.0 415.8 501.7 C 420.1 501.2 424.3 499.9 428.0 497.6 C 427.9 534.8 428.1 571.9 427.9 609.0 C 428.1 613.4 426.3 617.5 424.6 621.5 C 422.9 625.8 418.4 628.8 414.0 629.6 C 404.1 629.8 395.1 625.0 387.0 620.0 C 379.2 615.4 371.7 610.4 363.8 606.2 C 353.3 599.7 342.3 594.4 331.6 588.3 C 326.8 585.7 323.2 581.4 318.6 578.5 C 313.2 575.1 310.2 569.4 306.4 564.5 C 300.8 557.1 297.7 548.0 295.9 539.0 C 294.8 533.0 293.5 527.1 293.8 521.0 C 294.3 507.3 293.8 493.7 294.0 480.0 Z" />
<path fill="#5899e0" stroke="#5899e0" stroke-width="0.09375" opacity="1.00" d=" M 459.8 755.3 C 466.4 754.5 472.0 750.7 477.8 747.7 C 480.5 755.2 481.3 763.1 482.3 771.0 C 483.0 776.4 481.5 781.7 481.1 787.0 C 480.6 793.3 479.3 799.6 476.0 805.0 C 474.1 808.3 470.1 809.1 467.1 811.2 C 464.5 813.1 460.9 815.6 461.9 819.4 C 460.6 820.9 459.6 822.6 459.0 824.6 C 458.2 824.9 457.4 825.2 456.7 825.6 C 453.6 826.7 450.5 827.8 447.4 829.1 C 448.1 830.2 448.7 831.3 449.3 832.4 C 448.9 832.7 448.0 833.3 447.6 833.6 C 448.3 834.7 448.9 835.7 449.7 836.8 C 443.6 836.5 437.6 837.7 431.8 839.7 C 427.9 841.2 423.9 838.6 420.0 839.9 C 417.0 840.8 413.8 840.6 410.7 840.1 C 412.6 838.9 414.2 837.3 415.6 835.7 C 414.9 835.0 414.2 834.3 413.5 833.6 C 414.1 832.9 414.7 832.1 415.3 831.4 C 414.7 830.8 414.1 830.1 413.4 829.5 C 414.2 827.9 415.0 826.4 415.7 824.8 C 416.0 824.1 416.3 823.4 416.6 822.8 C 415.9 821.2 415.1 819.7 414.4 818.1 C 415.7 817.3 417.0 816.5 418.3 815.7 C 416.9 813.4 414.9 811.2 414.6 808.5 C 415.8 806.4 417.5 804.8 418.6 802.7 C 419.0 799.2 417.6 795.7 418.3 792.3 C 419.2 788.5 420.3 784.7 420.6 780.8 C 421.1 772.4 422.7 763.9 426.3 756.2 C 432.8 757.2 439.4 758.9 446.0 757.5 C 450.6 756.6 455.1 755.8 459.8 755.3 Z" />
<path fill="#58a8e2" stroke="#58a8e2" stroke-width="0.09375" opacity="1.00" d=" M 408.0 825.0 C 410.4 823.7 413.2 824.5 415.7 824.8 C 415.0 826.4 414.2 827.9 413.4 829.5 C 414.1 830.1 414.7 830.8 415.3 831.4 C 414.7 832.1 414.1 832.9 413.5 833.6 C 414.2 834.3 414.9 835.0 415.6 835.7 C 414.2 837.3 412.6 838.9 410.7 840.1 C 402.6 842.1 394.6 844.7 386.5 846.9 C 377.2 842.3 368.2 837.0 359.3 831.7 C 365.9 831.8 372.4 832.2 379.0 831.8 C 383.7 831.6 388.2 829.4 393.0 830.0 C 398.6 831.0 403.1 826.8 408.0 825.0 Z" />
<path fill="#65a0e3" stroke="#65a0e3" stroke-width="0.09375" opacity="1.00" d=" M 447.4 829.1 C 450.5 827.8 453.6 826.7 456.7 825.6 C 458.2 826.9 459.8 828.3 461.4 829.7 C 464.2 829.3 467.0 828.8 469.8 828.3 C 471.1 829.7 472.5 831.0 473.8 832.4 C 472.9 833.3 472.0 834.2 471.2 835.2 C 475.0 836.1 479.0 836.4 483.0 835.8 C 489.6 834.9 496.4 835.5 503.0 834.1 C 507.9 833.1 512.8 832.4 517.8 832.4 L 518.7 832.3 C 506.8 839.1 495.2 846.5 482.3 851.2 C 473.3 854.6 464.0 857.1 454.5 858.4 C 447.7 859.4 440.8 858.7 434.0 858.9 C 424.4 859.2 415.0 856.8 405.8 854.2 C 399.1 852.4 392.7 849.8 386.5 846.9 C 394.6 844.7 402.6 842.1 410.7 840.1 C 413.8 840.6 417.0 840.8 420.0 839.9 C 423.9 838.6 427.9 841.2 431.8 839.7 C 437.6 837.7 443.6 836.5 449.7 836.8 C 448.9 835.7 448.3 834.7 447.6 833.6 C 448.0 833.3 448.9 832.7 449.3 832.4 C 448.7 831.3 448.1 830.2 447.4 829.1 Z" />
</svg>
